<svg width="389" height="583" viewBox="0 0 389 583" fill="none" xmlns="http://www.w3.org/2000/svg">
<path d="M194.674 582.539C301.221 582.539 388.808 499.456 388.808 380.939C388.808 338.647 378.844 309.226 360.338 276.636L207.738 7.83635L207.738 7.84156C205.108 3.08636 200.103 0.138475 194.671 0.138475C189.238 0.138474 184.233 3.08636 181.603 7.84156L29.0028 276.642C10.4975 309.226 0.533498 338.647 0.533494 380.939C0.533484 499.455 88.1215 582.539 194.667 582.539L194.674 582.539ZM194.674 478.008C145.19 478.008 105.076 437.894 105.076 388.41C105.076 338.926 145.19 298.811 194.674 298.811C244.158 298.811 284.273 338.926 284.273 388.41C284.273 437.894 244.158 478.008 194.674 478.008Z" fill="#A53C37"/>
</svg>
